<?xml version="1.0" encoding="UTF-8"?>
<svg width="32px" height="32px" viewBox="0 0 32 32" version="1.1" xmlns="http://www.w3.org/2000/svg" xmlns:xlink="http://www.w3.org/1999/xlink">
    <title>编组 3@3x</title>
    <g id="Design" stroke="none" stroke-width="1" fill="none" fill-rule="evenodd">
        <g id="Sample" transform="translate(-151.000000, -309.000000)">
            <g id="编组-3" transform="translate(151.000000, 309.000000)">
                <rect id="矩形" fill-opacity="0" fill="#D8D8D8" x="0" y="0" width="32" height="32"></rect>
                <g id="编组-2" transform="translate(7.000000, 7.000000)" fill-rule="nonzero">
                    <path d="M12.7773756,5.25712787 C12.1457094,2.98479634 10.2589864,1.93229957 10.128024,1.9778918 C9.99706155,2.02348402 9.92974703,3.02189775 9.92974703,3.46933285 L9.92974703,21.0321331 C9.92974703,21.4795682 10.2277361,21.8433524 10.5942468,21.8433524 C10.9607575,21.8433524 11.6543559,20.7807809 11.6543559,20.3333458 L11.2587466,15.3127454 C11.5796081,14.6656227 12.7964336,15.4376713 13.1693184,14.6439604 C13.6170988,13.6887837 13.5074195,11.6929679 13.4179725,9.90656215 C13.3077312,8.31363399 13.1722738,6.67771959 12.7773756,5.25712787 Z" id="路径" fill="#3384F5" transform="translate(11.714199, 11.909913) scale(-1, 1) rotate(135.000000) translate(-11.714199, -11.909913) "></path>
                    <path d="M2.03939039,16.3151231 L2.03939039,18.3545135 L2.44249065e-13,18.3545135 L2.44249065e-13,16.3151231 L2.03939039,16.3151231 Z M2.03939039,12.2363423 L2.03939039,14.2757327 L2.44249065e-13,14.2757327 L2.44249065e-13,12.2363423 L2.03939039,12.2363423 Z M2.03939039,8.15756157 L2.03939039,10.196952 L2.43804976e-13,10.196952 L2.43804976e-13,8.15756157 L2.03939039,8.15756157 Z M2.03939039,4.07878078 L2.03939039,6.11817117 L2.44249065e-13,6.11817117 L2.44249065e-13,4.07878078 L2.03939039,4.07878078 Z M6.11817117,0 L6.11817117,2.03939039 L4.07878078,2.03939039 L4.07878078,0 L6.11817117,0 Z M2.03939039,0 L2.03939039,2.03939039 L0,2.03939039 L0,0 L2.03939039,0 Z M10.196952,0 L10.196952,2.03939039 L8.15756157,2.03939039 L8.15756157,0 L10.196952,0 Z M14.2757327,0 L14.2757327,2.03939039 L12.2363423,2.03939039 L12.2363423,0 L14.2757327,0 Z M18.3545135,0 L18.3545135,2.03939039 L16.3151231,2.03939039 L16.3151231,0 L18.3545135,0 Z" id="形状结合" fill="#BBBBBB"></path>
                </g>
            </g>
        </g>
    </g>
</svg>