<?xml version="1.0" encoding="UTF-8"?>
<svg width="28px" height="28px" viewBox="0 0 28 28" version="1.1" xmlns="http://www.w3.org/2000/svg" xmlns:xlink="http://www.w3.org/1999/xlink">
    <title>s_all</title>
    <defs>
        <linearGradient x1="80.3406488%" y1="33.3057724%" x2="50%" y2="58%" id="linearGradient-1">
            <stop stop-color="#FFDDD1" offset="0%"></stop>
            <stop stop-color="#D3391B" offset="100%"></stop>
        </linearGradient>
        <linearGradient x1="50%" y1="0%" x2="50%" y2="100%" id="linearGradient-2">
            <stop stop-color="#00A2FF" offset="0%"></stop>
            <stop stop-color="#1289FF" offset="100%"></stop>
        </linearGradient>
    </defs>
    <g id="首页" stroke="none" stroke-width="1" fill="none" fill-rule="evenodd">
        <g id="我的" transform="translate(-305.000000, -327.000000)">
            <g id="s全部" transform="translate(305.000000, 327.000000)">
                <rect id="矩形" fill="#000000" fill-rule="nonzero" opacity="0" x="0" y="0" width="28" height="28"></rect>
                <path d="M17.7916667,7.3325 L10.7916667,7.3325 C9.5025,7.3325 8.45833332,6.28833332 8.45833332,4.99916668 C8.45833332,3.71000003 9.5025,2.66583332 10.7916667,2.66583332 L17.7916667,2.66583332 C19.0808334,2.66583332 20.125,3.71 20.125,4.99916668 C20.125,6.28833335 19.0808333,7.3325 17.7916667,7.3325 Z" id="路径" fill="url(#linearGradient-1)"></path>
                <path d="M21.875,25.2525 L6.70833332,25.2525 C5.41916665,25.2525 4.375,24.2083333 4.375,22.9191667 L4.375,7.7525 C4.375,6.46333332 5.41916668,5.41916668 6.70833332,5.41916668 L21.875,5.41916668 C23.1641667,5.41916668 24.2083333,6.46333335 24.2083333,7.7525 L24.2083333,22.9191667 C24.2083333,24.2025 23.1641666,25.2525 21.875,25.2525 Z" id="路径" fill="url(#linearGradient-2)" fill-rule="nonzero"></path>
                <path d="M9.45270489,15.0040859 C8.97808734,14.5306951 8.85733403,13.8846952 9.18278646,13.5600847 L9.29643697,13.4467291 C9.62188975,13.122119 10.2695666,13.2425597 10.7441852,13.7159494 L14.3000592,17.2626145 C14.7746767,17.7360054 14.89543,18.3820053 14.5699776,18.7066158 L14.4563271,18.8199713 C14.1293116,19.1412098 13.4835668,19.0211284 13.0085788,18.550751 L9.45270489,15.0040859 Z M14.7328648,18.539044 C14.2564637,19.0142117 13.6059705,19.1358016 13.2799475,18.8106227 L13.1691016,18.7000645 C13.0125402,18.5439078 12.9532716,18.3035016 13.0043347,18.0317322 C13.0553978,17.7599628 13.2126097,17.4790922 13.4413845,17.2509075 L19.2535803,11.4537625 C19.4823562,11.225579 19.763956,11.0687741 20.0364308,11.0178432 C20.3089057,10.9669123 20.549936,11.0260274 20.7064977,11.1821838 L20.8173436,11.292742 C20.973905,11.4488988 21.0331736,11.689305 20.9821105,11.9610744 C20.9310474,12.2328437 20.7738355,12.5137144 20.5450606,12.741899 L14.7328648,18.539044 Z" id="形状" fill="#FFFFFF" fill-rule="nonzero"></path>
            </g>
        </g>
    </g>
</svg>