<?xml version="1.0" encoding="UTF-8"?>
<svg width="28px" height="28px" viewBox="0 0 28 28" version="1.1" xmlns="http://www.w3.org/2000/svg" xmlns:xlink="http://www.w3.org/1999/xlink">
    <title>s_complete</title>
    <defs>
        <linearGradient x1="80.3406488%" y1="33.3057724%" x2="50%" y2="58%" id="linearGradient-1">
            <stop stop-color="#FFDDD1" offset="0%"></stop>
            <stop stop-color="#D3391B" offset="100%"></stop>
        </linearGradient>
        <linearGradient x1="50%" y1="0%" x2="50%" y2="100%" id="linearGradient-2">
            <stop stop-color="#00A2FF" offset="0%"></stop>
            <stop stop-color="#1289FF" offset="100%"></stop>
        </linearGradient>
    </defs>
    <g id="首页" stroke="none" stroke-width="1" fill="none" fill-rule="evenodd">
        <g id="我的" transform="translate(-221.000000, -327.000000)">
            <g id="s待收货" transform="translate(221.000000, 327.000000)">
                <rect id="矩形" fill="#000000" fill-rule="nonzero" opacity="0" x="0" y="0" width="28" height="28"></rect>
                <path d="M17.7916667,7.3325 L10.7916667,7.3325 C9.5025,7.3325 8.45833332,6.28833332 8.45833332,4.99916668 C8.45833332,3.71000003 9.5025,2.66583332 10.7916667,2.66583332 L17.7916667,2.66583332 C19.0808334,2.66583332 20.125,3.71 20.125,4.99916668 C20.125,6.28833335 19.0808333,7.3325 17.7916667,7.3325 Z" id="路径" fill="url(#linearGradient-1)"></path>
                <path d="M21.875,25.2525 L6.70833332,25.2525 C5.41916665,25.2525 4.375,24.2083333 4.375,22.9191667 L4.375,7.7525 C4.375,6.46333332 5.41916668,5.41916668 6.70833332,5.41916668 L21.875,5.41916668 C23.1641667,5.41916668 24.2083333,6.46333335 24.2083333,7.7525 L24.2083333,22.9191667 C24.2083333,24.2025 23.1641666,25.2525 21.875,25.2525 Z" id="路径" fill="url(#linearGradient-2)" fill-rule="nonzero"></path>
                <g id="等待" transform="translate(8.000000, 9.000000)" fill-rule="nonzero">
                    <rect id="矩形" fill="#000000" opacity="0" x="0" y="0" width="12" height="12"></rect>
                    <path d="M6.30943376,4.50010331 L6.30943376,6.75191492 C6.30943376,6.76733898 6.3172667,6.78089406 6.31922493,6.79584585 C6.3226571,6.82062482 6.32559445,6.84353482 6.33441703,6.86597255 C6.34273425,6.88606904 6.35399936,6.90337211 6.36526446,6.92066514 C6.37702439,6.93982715 6.3882895,6.95806471 6.40445018,6.97535774 C6.42110569,6.99265077 6.44069855,7.00433688 6.46127053,7.0202332 C6.47449387,7.02865363 6.48330591,7.04220871 6.49849801,7.04922239 L8.55318992,8.09167752 C8.60550454,8.11824198 8.66388795,8.13205257 8.72314561,8.13189643 C8.85462609,8.13248883 8.97596721,8.06454562 9.03955818,7.9547099 C9.08470634,7.87564696 9.09467677,7.78258602 9.06722908,7.69643815 C9.0397814,7.61029028 8.97721765,7.53828075 8.89359611,7.49659033 L7.02748416,6.54902077 L7.02748416,4.50010331 C7.02533894,4.312541 6.86498369,4.16179282 6.6684537,4.1625635 C6.47171303,4.16129464 6.31104982,4.31233227 6.30943376,4.50010331 Z M11.1999274,6.0619679 C11.1327814,6.12535226 11.094768,6.21159876 11.0942501,6.30173347 C11.0942501,8.59888277 9.10910704,10.4668916 6.66894852,10.4668916 C4.22828465,10.4668916 2.24363643,8.59888277 2.24363643,6.30173347 C2.24363643,4.0041119 4.22829518,2.13610304 6.66894852,2.13610304 C7.19662145,2.13852283 7.71971959,2.22967083 8.21424714,2.40536585 L7.74307098,2.52410596 C7.56913249,2.56598311 7.45572421,2.72566714 7.47938968,2.89538126 C7.50305515,3.06509537 7.65627457,3.19091215 7.83563434,3.18791309 C7.86703603,3.18804075 7.89832162,3.18426777 7.92870306,3.1766892 L9.08216554,2.88546093 C9.23571474,2.84797918 9.36713632,2.75335936 9.44707071,2.62273953 C9.52654732,2.49381498 9.54775723,2.33961256 9.50583876,2.19547812 L9.19678535,1.10859969 C9.17181893,1.02123047 9.11148929,0.946915785 9.02908337,0.902022631 C8.94667745,0.85714359 8.84895407,0.845339927 8.75743574,0.869250503 C8.66619156,0.891662801 8.58809021,0.947899317 8.54045806,1.02548427 C8.49282591,1.10306923 8.47960136,1.19558762 8.50371821,1.28251471 L8.66142968,1.83737877 C8.02925132,1.58879971 7.35218178,1.46080078 6.6684537,1.46060979 C3.83253205,1.46060979 1.52559656,3.63247758 1.52559656,6.30173347 C1.52559656,8.97098936 3.83253205,11.1428571 6.6684537,11.1428571 C9.50389105,11.1428571 11.8113108,8.97098936 11.8113108,6.30220574 C11.8113108,6.1152079 11.6506515,5.96375071 11.4523014,5.96375071 C11.3578515,5.96325367 11.2670734,5.99858355 11.1999274,6.0619679 Z" id="形状" stroke="#FFFFFF" stroke-width="0.5" fill="#FFFFFF"></path>
                </g>
            </g>
        </g>
    </g>
</svg>