<?xml version="1.0" encoding="UTF-8"?>
<svg width="18px" height="18px" viewBox="0 0 18 18" version="1.1" xmlns="http://www.w3.org/2000/svg" xmlns:xlink="http://www.w3.org/1999/xlink">
    <title>商城订单</title>
    <defs>
        <linearGradient x1="35.0130632%" y1="0%" x2="66.2554807%" y2="100%" id="linearGradient-1">
            <stop stop-color="#FF684B" offset="0.0818201014%"></stop>
            <stop stop-color="#D3391B" offset="100%"></stop>
        </linearGradient>
        <path d="M15.1015625,12.6951172 L14.7078125,3.11855469 C14.6515625,1.77734375 13.5142578,0.726171875 12.1220703,0.726171875 L3.85332031,0.726171875 C2.4453125,0.726171875 1.33261719,1.75273438 1.26582031,3.11855469 L0.873828125,12.6423828 C0.838671875,13.3226563 1.09355469,14.0345703 1.53828125,14.5003906 C2.03222656,15.0171875 2.67207031,15.3142578 3.29433594,15.3142578 L12.6810547,15.3142578 C13.2892578,15.3142578 13.9308594,15.0101563 14.4371094,14.4792969 C14.8941406,14.0046875 15.1367187,13.3507813 15.1015625,12.6951172 L15.1015625,12.6951172 Z" id="path-2"></path>
        <linearGradient x1="50%" y1="0%" x2="50%" y2="100%" id="linearGradient-4">
            <stop stop-color="#FFFFFF" offset="0%"></stop>
            <stop stop-color="#FFFFFF" offset="33.9606208%"></stop>
            <stop stop-color="#FFFFFF" stop-opacity="0.5" offset="100%"></stop>
        </linearGradient>
        <linearGradient x1="50%" y1="0%" x2="50%" y2="100%" id="linearGradient-5">
            <stop stop-color="#FFFFFF" offset="0%"></stop>
            <stop stop-color="#FFFFFF" offset="74.7941301%"></stop>
            <stop stop-color="#FFFFFF" stop-opacity="0.5" offset="100%"></stop>
        </linearGradient>
        <linearGradient x1="50%" y1="0%" x2="50%" y2="100%" id="linearGradient-6">
            <stop stop-color="#FFFFFF" offset="0%"></stop>
            <stop stop-color="#FFFFFF" offset="70.9776182%"></stop>
            <stop stop-color="#FFFFFF" stop-opacity="0.501092657" offset="100%"></stop>
        </linearGradient>
        <path d="M11.9074219,4.82695313 C11.6050781,4.82695313 11.3607422,5.07128906 11.3607422,5.37363281 C11.3607422,6.68144531 10.2972656,7.74492188 8.98945313,7.74492188 C7.68164063,7.74492188 6.61816406,6.68144531 6.61816406,5.37363281 C6.61816406,5.07128906 6.37382813,4.82695313 6.07148438,4.82695313 C5.76914063,4.82695313 5.52480469,5.07128906 5.52480469,5.37363281 C5.52480469,7.284375 7.08046875,8.83828125 8.99121094,8.83828125 C10.9037109,8.83828125 12.4576172,7.284375 12.4576172,5.37363281 C12.4558594,5.07128906 12.2097656,4.82695313 11.9074219,4.82695313 Z" id="path-7"></path>
        <filter x="-102.4%" y="-127.1%" width="304.8%" height="454.0%" filterUnits="objectBoundingBox" id="filter-8">
            <feMorphology radius="0.1" operator="dilate" in="SourceAlpha" result="shadowSpreadOuter1"></feMorphology>
            <feOffset dx="0" dy="2" in="shadowSpreadOuter1" result="shadowOffsetOuter1"></feOffset>
            <feGaussianBlur stdDeviation="2" in="shadowOffsetOuter1" result="shadowBlurOuter1"></feGaussianBlur>
            <feComposite in="shadowBlurOuter1" in2="SourceAlpha" operator="out" result="shadowBlurOuter1"></feComposite>
            <feColorMatrix values="0 0 0 0 1   0 0 0 0 0.407843137   0 0 0 0 0.117647059  0 0 0 0.5 0" type="matrix" in="shadowBlurOuter1"></feColorMatrix>
        </filter>
    </defs>
    <g id="组件" stroke="none" stroke-width="1" fill="none" fill-rule="evenodd">
        <g id="商城/on" transform="translate(-29.000000, -10.000000)">
            <g id="商城订单" transform="translate(29.000000, 10.000000)">
                <rect id="矩形" fill="#000000" fill-rule="nonzero" opacity="0" x="0" y="0" width="18" height="18"></rect>
                <g id="椭圆形备份-2-+-椭圆形备份-3-蒙版" transform="translate(1.000000, 1.000000)">
                    <mask id="mask-3" fill="white">
                        <use xlink:href="#path-2"></use>
                    </mask>
                    <use id="蒙版" fill="url(#linearGradient-1)" fill-rule="nonzero" xlink:href="#path-2"></use>
                    <circle id="椭圆形备份-2" fill="url(#linearGradient-4)" opacity="0.149999991" mask="url(#mask-3)" cx="18.5" cy="4.5" r="7.5"></circle>
                    <circle id="椭圆形备份-3" fill="url(#linearGradient-4)" opacity="0.149999991" mask="url(#mask-3)" cx="0.5" cy="-0.5" r="7.5"></circle>
                </g>
                <g id="路径" fill-rule="nonzero">
                    <use fill="black" fill-opacity="1" filter="url(#filter-8)" xlink:href="#path-7"></use>
                    <use stroke="url(#linearGradient-6)" stroke-width="0.2" fill="url(#linearGradient-5)" xlink:href="#path-7"></use>
                </g>
            </g>
        </g>
    </g>
</svg>