<?xml version="1.0" encoding="UTF-8"?>
<svg width="75px" height="48px" viewBox="0 0 75 48" version="1.1" xmlns="http://www.w3.org/2000/svg" xmlns:xlink="http://www.w3.org/1999/xlink">
    <title>我的</title>
    <g id="组件" stroke="none" stroke-width="1" fill="none" fill-rule="evenodd">
        <g id="我的">
            <rect fill="#FFFFFF" x="0" y="0" width="75" height="48"></rect>
            <rect id="矩形" fill="#000000" fill-rule="nonzero" opacity="0" x="29" y="10" width="18" height="18"></rect>
            <path d="M41.0506251,19.9277108 C42.7979322,19.9278302 44.3091822,21.1466235 44.6814552,22.8559036 L44.9651559,24.1584096 C45.0629486,24.6072985 44.9524343,25.0763799 44.6645855,25.43419 C44.3767368,25.792 43.9425263,26 43.4836452,26 L32.5163548,26 C32.0574737,26 31.6232632,25.792 31.3354145,25.43419 C31.0475657,25.0763799 30.9370514,24.6072985 31.0348441,24.1584096 L31.3185448,22.856241 C31.6906811,21.1468268 33.2019661,19.9278648 34.9493749,19.9277108 L41.0506251,19.9277108 L41.0506251,19.9277108 Z M41.0506251,20.939759 L34.9493749,20.939759 C33.6772358,20.9398882 32.5770102,21.8273251 32.3061063,23.0718072 L32.0224056,24.3739759 C31.9897646,24.5236413 32.0265982,24.6800547 32.1225781,24.799357 C32.2185579,24.9186594 32.3633503,24.988006 32.5163548,24.9879518 L43.4836452,24.9879518 C43.6366497,24.988006 43.7814421,24.9186594 43.8774219,24.799357 C43.9734018,24.6800547 44.0102354,24.5236413 43.9775944,24.3739759 L43.6938937,23.0718072 C43.4229898,21.8273251 42.3227642,20.9398882 41.0506251,20.939759 L41.0506251,20.939759 Z M38,12 C40.0468906,12 41.706304,13.6614458 41.706304,15.7108434 C41.706304,17.760241 40.0468906,19.4216867 38,19.4216867 C35.9531094,19.4216867 34.293696,17.760241 34.293696,15.7108434 C34.293696,13.6614458 35.9531094,12 38,12 Z M38,13.0120482 C37.0369437,13.0119744 36.1470114,13.5263457 35.665462,14.3613861 C35.1839125,15.1964266 35.1839125,16.2252602 35.665462,17.0603006 C36.1470114,17.895341 37.0369437,18.4097124 38,18.4096386 C39.4885995,18.4095245 40.6952875,17.2012661 40.6952875,15.7108434 C40.6952875,14.2204206 39.4885995,13.0121623 38,13.0120482 L38,13.0120482 Z" id="形状" fill="#666666" fill-rule="nonzero"></path>
            <text font-family="PingFangSC-Regular, PingFang SC" font-size="10" font-weight="normal" line-spacing="10" fill="#666666">
                <tspan x="28" y="43">我的</tspan>
            </text>
        </g>
    </g>
</svg>