<?xml version="1.0" encoding="UTF-8"?>
<svg width="18px" height="21px" viewBox="0 0 18 21" version="1.1" xmlns="http://www.w3.org/2000/svg" xmlns:xlink="http://www.w3.org/1999/xlink">
    <title>首页</title>
    <defs>
        <linearGradient x1="35.8047728%" y1="0%" x2="65.3967582%" y2="100%" id="linearGradient-1">
            <stop stop-color="#FF684B" offset="0.0818201014%"></stop>
            <stop stop-color="#D3391B" offset="100%"></stop>
        </linearGradient>
        <path d="M14.7969336,4.45273437 L10.0309766,0.825488281 C9.44731194,0.380856481 8.73373126,0.140299382 8,0.140819468 C7.28298828,0.140819468 6.56914063,0.367929687 5.96902344,0.825488281 L1.19955078,4.45273437 C0.781015625,4.77072266 0.537734375,5.26378906 0.537734375,5.789375 L0.537734375,12.7779102 C0.537734375,14.4780664 1.9165625,15.8537305 3.61355469,15.8537305 L12.3832813,15.8537305 C14.0834375,15.8537305 15.4591284,14.4747266 15.4591284,12.7779102 L15.4591284,5.789375 C15.4620898,5.26378906 15.2154688,4.77054687 14.7969336,4.45273437 Z" id="path-2"></path>
        <linearGradient x1="50%" y1="0%" x2="50%" y2="100%" id="linearGradient-4">
            <stop stop-color="#FFFFFF" offset="0%"></stop>
            <stop stop-color="#FFFFFF" offset="33.9606208%"></stop>
            <stop stop-color="#FFFFFF" stop-opacity="0.5" offset="100%"></stop>
        </linearGradient>
        <linearGradient x1="50%" y1="0%" x2="50%" y2="100%" id="linearGradient-5">
            <stop stop-color="#FFFFFF" offset="0%"></stop>
            <stop stop-color="#FFFFFF" offset="65.2317356%"></stop>
            <stop stop-color="#FFFFFF" stop-opacity="0.499508304" offset="99.9709671%"></stop>
        </linearGradient>
        <path d="M8.99736328,8.37263672 C7.27136719,8.37263672 5.86652344,9.77748047 5.86652344,11.5034766 L5.86652344,13.6805273 C5.86652344,14.0373633 6.15849609,14.3293359 6.51533203,14.3293359 C6.87216797,14.3293359 7.16431641,14.0373633 7.16431641,13.6805273 L7.16431641,11.5034766 C7.16431641,10.4944922 7.98521484,9.67042969 8.99736328,9.67042969 C10.0095117,9.67042969 10.8304102,10.4913281 10.8304102,11.5034766 L10.8304102,13.6805273 C10.8304102,14.0373633 11.1223828,14.3293359 11.4793945,14.3293359 C11.8362305,14.3293359 12.1282031,14.0373633 12.1282031,13.6805273 L12.1282031,11.5034766 C12.1282031,9.77765625 10.7266992,8.37263672 8.99736328,8.37263672 L8.99736328,8.37263672 Z" id="path-6"></path>
        <filter x="-111.8%" y="-83.9%" width="323.6%" height="335.0%" filterUnits="objectBoundingBox" id="filter-7">
            <feOffset dx="0" dy="2" in="SourceAlpha" result="shadowOffsetOuter1"></feOffset>
            <feGaussianBlur stdDeviation="2" in="shadowOffsetOuter1" result="shadowBlurOuter1"></feGaussianBlur>
            <feColorMatrix values="0 0 0 0 1   0 0 0 0 0.392156863   0 0 0 0 0.239215686  0 0 0 0.5 0" type="matrix" in="shadowBlurOuter1"></feColorMatrix>
        </filter>
    </defs>
    <g id="组件" stroke="none" stroke-width="1" fill="none" fill-rule="evenodd">
        <g id="bar/商城/购买" transform="translate(-29.000000, -10.000000)">
            <g id="首页" transform="translate(29.000000, 10.000000)">
                <rect id="矩形" fill="#000000" fill-rule="nonzero" opacity="0" x="0" y="0" width="18" height="18"></rect>
                <g id="椭圆形-+-椭圆形备份-蒙版" transform="translate(1.000000, 1.000000)">
                    <mask id="mask-3" fill="white">
                        <use xlink:href="#path-2"></use>
                    </mask>
                    <use id="蒙版" fill="url(#linearGradient-1)" fill-rule="nonzero" xlink:href="#path-2"></use>
                    <circle id="椭圆形" fill="url(#linearGradient-4)" opacity="0.100000001" mask="url(#mask-3)" cx="16.5" cy="4.5" r="7.5"></circle>
                    <circle id="椭圆形备份" fill="url(#linearGradient-4)" opacity="0.100000001" mask="url(#mask-3)" cx="0.5" cy="0.5" r="7.5"></circle>
                </g>
                <g id="路径" fill-rule="nonzero">
                    <use fill="black" fill-opacity="1" filter="url(#filter-7)" xlink:href="#path-6"></use>
                    <use fill="url(#linearGradient-5)" xlink:href="#path-6"></use>
                </g>
            </g>
        </g>
    </g>
</svg>